<?xml version="1.0" standalone="no"?>
<!DOCTYPE svg PUBLIC "-//W3C//DTD SVG 20010904//EN"
 "http://www.w3.org/TR/2001/REC-SVG-20010904/DTD/svg10.dtd">
<svg version="1.0" xmlns="http://www.w3.org/2000/svg"
 width="100%" height="100%" viewBox="0 0 1342.000000 428.000000"
 preserveAspectRatio="xMidYMid meet">

<g transform="translate(0.000000,428.000000) scale(0.100000,-0.100000)"
fill="#000000" stroke="none">
<path d="M0 2140 l0 -2140 6710 0 6710 0 0 2140 0 2140 -6710 0 -6710 0 0
-2140z m13370 0 l0 -2090 -6665 0 -6665 0 0 2090 0 2090 6665 0 6665 0 0
-2090z"/>
<path d="M3130 2755 l0 -605 65 0 65 0 0 605 0 605 -65 0 -65 0 0 -605z"/>
<path d="M5980 2755 l0 -605 59 0 60 0 3 278 c3 313 5 321 86 394 50 45 100
62 169 56 85 -7 142 -62 162 -159 6 -28 11 -162 11 -309 l0 -260 61 0 60 0 -3
318 c-3 306 -4 319 -26 367 -28 60 -64 100 -117 128 -32 17 -57 22 -125 22
-108 0 -171 -26 -235 -97 l-45 -50 0 261 0 261 -60 0 -60 0 0 -605z"/>
<path d="M7860 2755 l0 -605 65 0 65 0 0 605 0 605 -65 0 -65 0 0 -605z"/>
<path d="M8820 3111 l0 -248 -48 47 c-59 60 -134 85 -226 77 -85 -8 -129 -23
-178 -60 -102 -78 -155 -189 -165 -344 -10 -156 22 -267 102 -352 69 -74 120
-95 230 -95 114 -1 175 24 240 96 l45 50 0 -66 0 -66 60 0 60 0 0 605 0 605
-60 0 -60 0 0 -249z m-159 -243 c52 -15 117 -73 140 -122 25 -54 27 -269 4
-337 -44 -128 -175 -195 -310 -158 -56 15 -127 91 -150 160 -27 79 -24 216 5
293 53 139 177 205 311 164z"/>
<path d="M2240 2726 l0 -576 65 0 65 0 0 219 0 219 138 4 c111 4 148 9 194 27
76 29 159 106 195 179 25 51 28 67 28 163 0 98 -2 110 -30 164 -21 40 -46 72
-80 97 -82 63 -122 71 -362 76 l-213 4 0 -576z m446 433 c29 -15 61 -42 79
-68 28 -40 30 -49 30 -135 0 -86 -2 -96 -30 -142 -24 -37 -45 -56 -90 -79 -54
-28 -68 -30 -182 -34 l-123 -3 0 247 0 247 133 -4 c119 -3 139 -6 183 -29z"/>
<path d="M3711 2979 c-24 -5 -72 -22 -107 -38 l-64 -30 0 -60 c0 -34 2 -61 5
-61 3 0 26 13 52 29 68 42 154 64 224 59 94 -7 144 -58 156 -156 l6 -51 -34
-5 c-19 -4 -81 -13 -139 -21 -165 -24 -218 -43 -273 -94 -81 -74 -96 -229 -31
-322 34 -49 111 -90 184 -96 107 -10 201 30 260 110 l30 41 0 -67 0 -67 60 0
60 0 0 315 c0 292 -1 318 -20 369 -48 126 -187 181 -369 145z m269 -486 c0
-150 -95 -253 -233 -253 -116 0 -186 100 -143 203 21 52 88 81 231 100 61 8
118 15 128 16 15 1 17 -8 17 -66z"/>
<path d="M4603 2975 c-159 -44 -262 -161 -294 -330 -15 -80 -5 -207 21 -278
30 -80 111 -166 190 -201 107 -48 250 -46 353 6 36 18 37 20 37 73 0 30 -2 55
-4 55 -2 0 -28 -12 -57 -26 -102 -52 -241 -40 -322 27 -21 17 -50 54 -64 83
-23 43 -28 67 -31 151 -3 83 0 109 17 155 42 113 131 179 250 188 62 4 111 -7
194 -43 16 -7 18 -2 15 55 l-3 63 -40 14 c-59 22 -200 26 -262 8z"/>
<path d="M5337 2976 c-103 -28 -203 -127 -247 -244 -46 -120 -35 -304 24 -420
26 -51 94 -121 142 -145 111 -56 331 -42 438 28 23 15 26 24 26 71 0 30 -3 54
-7 54 -5 0 -21 -9 -38 -20 -44 -30 -150 -60 -209 -60 -66 0 -137 21 -179 53
-45 34 -87 116 -94 182 l-6 55 293 0 293 0 -5 98 c-9 189 -85 304 -227 346
-64 19 -138 20 -204 2z m181 -111 c74 -31 121 -102 122 -182 l0 -43 -226 0
-226 0 7 33 c34 153 190 247 323 192z"/>
<path d="M7143 2975 c-77 -21 -130 -51 -179 -101 -126 -130 -152 -382 -57
-557 134 -245 535 -249 680 -6 99 166 81 428 -38 564 -86 98 -257 140 -406
100z m254 -131 c116 -71 163 -262 107 -434 -31 -98 -111 -159 -221 -168 -113
-9 -207 35 -258 122 -37 63 -46 100 -46 197 0 110 26 185 86 244 56 57 110 75
207 71 65 -2 85 -7 125 -32z"/>
<path d="M9437 2976 c-103 -28 -203 -127 -247 -244 -46 -120 -35 -304 24 -420
26 -51 94 -121 142 -145 111 -56 331 -42 438 28 23 15 26 24 26 71 0 30 -3 54
-7 54 -5 0 -21 -9 -38 -20 -44 -30 -150 -60 -209 -60 -66 0 -137 21 -179 53
-45 34 -87 116 -94 182 l-6 55 293 0 293 0 -5 98 c-9 189 -85 304 -227 346
-64 19 -138 20 -204 2z m181 -111 c74 -31 121 -102 122 -182 l0 -43 -226 0
-226 0 7 33 c34 153 190 247 323 192z"/>
<path d="M10352 2979 c-42 -12 -108 -78 -132 -132 l-19 -42 0 83 -1 82 -60 0
-60 0 0 -410 0 -410 59 0 60 0 3 268 c3 254 4 269 26 317 41 90 101 135 179
135 21 0 50 -7 66 -14 l27 -15 0 69 c0 53 -4 69 -16 74 -22 9 -93 6 -132 -5z"/>
</g>
</svg>
